<svg id="Circles" xmlns="http://www.w3.org/2000/svg" viewBox="0 0 30 30"><defs><style>.cls-1{fill:#ff2e3c;}</style></defs><title>circle-failure</title><path class="cls-1" d="M14.74,2.83A12.12,12.12,0,0,0,3,12a.61.61,0,0,0,.59.76H8.25a.62.62,0,0,0,.56-.38,6.36,6.36,0,1,1,5.87,8.78,6.4,6.4,0,0,1-5.87-3.82.61.61,0,0,0-.56-.38H3.61a.6.6,0,0,0-.59.75,12.18,12.18,0,0,0,24-3.51A12.18,12.18,0,0,0,14.74,2.83Z"/><path class="cls-1" d="M16.62,14.83l1.31-1.25a.37.37,0,0,0,0-.53l-1.07-1a.4.4,0,0,0-.56,0L15,13.27,13.7,12a.4.4,0,0,0-.56,0l-1.07,1a.37.37,0,0,0,0,.53l1.31,1.25-1.31,1.24a.37.37,0,0,0,0,.53l1.07,1a.43.43,0,0,0,.56,0L15,16.38l1.3,1.25a.43.43,0,0,0,.56,0l1.07-1a.37.37,0,0,0,0-.53Z"/></svg>