<svg xmlns="http://www.w3.org/2000/svg" viewBox="0 0 30 30"><defs><style>.cls-1{fill:#cca60a;}</style></defs><title>status-setup-needed</title><g id="Android_Compatible_Icon_Set_B" data-name="Android Compatible Icon Set B"><path class="cls-1" d="M15,2.77a12,12,0,1,0,12,12A12,12,0,0,0,15,2.77Zm6.49,17.29-1,1a1,1,0,0,1-1.41,0L13.4,15.41a4.25,4.25,0,0,1-1.14.18,4,4,0,0,1-4-4.05,4,4,0,0,1,.35-1.65l2.52,2.53a.28.28,0,0,0,.4,0l1.65-1.65a.28.28,0,0,0,0-.4L10.62,7.85a3.93,3.93,0,0,1,1.64-.36A4,4,0,0,1,16,13.14l5.51,5.51A1,1,0,0,1,21.49,20.06Z"/></g></svg>